<svg width="60" height="60" viewBox="0 0 60 60" fill="none" xmlns="http://www.w3.org/2000/svg">
<rect width="60" height="60" rx="12.5" fill="#7717FF"/>
<path d="M39.8006 25.674L34.2626 18.0029L33.1482 18.8075L27.9883 15L20.1285 25.6641H17.0859V45H39.5556C41.4103 45 42.9192 43.4912 42.9192 41.6364V29.0276C42.9192 27.2554 41.5412 25.8 39.8006 25.674ZM37.6254 25.6641H26.6537L33.8663 20.4571L37.6254 25.6641ZM28.36 17.4579L31.6515 19.8879L23.6506 25.6641H22.3124L28.36 17.4579ZM41.1614 37.9688H34.8333C33.3794 37.9688 32.1966 36.7859 32.1966 35.332C32.1966 33.8781 33.3794 32.6953 34.8333 32.6953H41.1614V37.9688ZM34.8333 30.9375C32.4101 30.9375 30.4388 32.9089 30.4388 35.332C30.4388 37.7552 32.4101 39.7266 34.8333 39.7266H41.1614V41.6364C41.1614 42.5218 40.4411 43.2422 39.5556 43.2422H18.8438V27.4219H39.5556C40.441 27.4219 41.1613 28.1422 41.1613 29.0276V30.9375H34.8333Z" fill="white"/>
<path d="M34.7188 34.4531H36.4766V36.2109H34.7188V34.4531Z" fill="white"/>
</svg>
