<svg width="48" height="48" viewBox="0 0 48 48" fill="none" xmlns="http://www.w3.org/2000/svg">
<path d="M24.0003 47.2072C36.8163 47.2072 47.2057 36.8178 47.2057 24.0018C47.2057 11.1858 36.8163 0.796387 24.0003 0.796387C11.1843 0.796387 0.794922 11.1858 0.794922 24.0018C0.794922 36.8178 11.1843 47.2072 24.0003 47.2072Z" fill="#DFE5E8"/>
<path d="M38.5762 40.7713V42.0553C34.5921 45.2768 29.5205 47.2061 23.9978 47.2061C18.4756 47.2061 13.4034 45.2768 9.41992 42.0564V40.7713C9.41992 33.8341 15.0436 28.21 21.9807 28.21H26.0154C32.9525 28.2101 38.5762 33.8343 38.5762 40.7713Z" fill="#AEB6BA"/>
<path d="M24 24.8151C28.257 24.8151 31.7079 21.3641 31.7079 17.1071C31.7079 12.8501 28.257 9.39917 24 9.39917C19.743 9.39917 16.292 12.8501 16.292 17.1071C16.292 21.3641 19.743 24.8151 24 24.8151Z" fill="#AEB6BA"/>
<path d="M24 48C20.7604 48 17.6172 47.3654 14.6579 46.1137C11.7999 44.9048 9.23327 43.1745 7.02939 40.9706C4.82557 38.7667 3.0952 36.2002 1.88633 33.3422C0.634636 30.3829 0 27.2397 0 24C0 20.7604 0.634636 17.6173 1.88633 14.6579C3.0952 11.7999 4.82557 9.23327 7.02939 7.02939C9.23327 4.82551 11.7999 3.09515 14.6579 1.88634C17.6172 0.634638 20.7604 0 24 0C27.2397 0 30.3828 0.634638 33.3421 1.88634C36.2002 3.09515 38.7667 4.82551 40.9706 7.02939C43.1744 9.23327 44.9048 11.7998 46.1137 14.6579C47.3654 17.6172 48 20.7604 48 24C48 27.2397 47.3654 30.3828 46.1137 33.3422C44.9048 36.2002 43.1744 38.7668 40.9706 40.9706C38.7667 43.1745 36.2002 44.9048 33.3421 46.1137C30.3828 47.3653 27.2397 48 24 48ZM24 1.58917C20.9742 1.58917 18.0393 2.1816 15.2769 3.34999C12.6083 4.47869 10.2115 6.09473 8.15317 8.15311C6.09468 10.2115 4.47869 12.6083 3.34999 15.2769C2.1816 18.0393 1.58917 20.9741 1.58917 24C1.58917 27.0258 2.1816 29.9606 3.34999 32.723C4.47869 35.3916 6.09468 37.7883 8.15317 39.8468C10.2116 41.9052 12.6083 43.5212 15.2769 44.6499C18.0393 45.8183 20.9742 46.4107 24 46.4107C27.0258 46.4107 29.9607 45.8183 32.7231 44.6499C35.3917 43.5212 37.7885 41.9052 39.8468 39.8468C41.9053 37.7883 43.5213 35.3915 44.65 32.723C45.8184 29.9606 46.4108 27.0258 46.4108 24C46.4108 20.9742 45.8184 18.0393 44.65 15.2769C43.5213 12.6083 41.9053 10.2115 39.8468 8.15311C37.7884 6.09468 35.3917 4.47869 32.7231 3.34999C29.9607 2.1816 27.0258 1.58917 24 1.58917Z" fill="#AEB6BA"/>
</svg>
