<svg width="30" height="30" viewBox="0 0 30 30" fill="none" xmlns="http://www.w3.org/2000/svg">
<path d="M24.4336 19.3506V13.0078C24.4336 9.0334 21.9633 5.625 18.477 4.23809C18.5215 4.01367 18.5449 3.78223 18.5449 3.54492C18.5449 1.59023 16.9547 0 15 0C13.0453 0 11.4551 1.59023 11.4551 3.54492C11.4551 3.78223 11.4785 4.01367 11.523 4.23809C8.03672 5.625 5.56641 9.0334 5.56641 13.0078V19.3506L2.10938 20.5225V25.6055H10.1596C10.3957 28.0682 12.4764 30 15 30C17.5236 30 19.6043 28.0682 19.8404 25.6055H27.8906V20.5225L24.4336 19.3506ZM26.1328 23.8477H3.86719V21.7822L7.32422 20.6104V13.0078C7.32422 9.72949 9.39023 6.92461 12.2889 5.82656C13.132 5.50723 14.0461 5.33203 15 5.33203C15.9539 5.33203 16.868 5.50723 17.7111 5.82656C20.6098 6.92461 22.6758 9.72949 22.6758 13.0078V20.6104L26.1328 21.7822V23.8477ZM13.2129 3.54492C13.2129 2.55938 14.0145 1.75781 15 1.75781C15.9855 1.75781 16.7871 2.55938 16.7871 3.54492C16.7871 3.61172 16.7836 3.67793 16.776 3.74238C16.2006 3.63164 15.607 3.57422 15 3.57422C14.393 3.57422 13.7994 3.63164 13.224 3.74238C13.2164 3.67793 13.2129 3.61172 13.2129 3.54492ZM15 28.2422C13.4473 28.2422 12.1564 27.0961 11.9297 25.6055H18.0703C17.8436 27.0961 16.5527 28.2422 15 28.2422Z" fill="white"/>
<circle cx="22.5" cy="6.25" r="3.75" fill="#7717FF"/>
</svg>
