<svg width="1268" height="920" viewBox="0 0 1268 920" fill="none" xmlns="http://www.w3.org/2000/svg">
<path d="M681.208 578.376L501.717 574.552L478.053 573.118L477.1 587.936L549.995 592.238L548.083 651.272L550.712 651.752L552.144 652.947L555.729 657.489L557.402 658.203L562.424 657.728L564.094 656.294L566.962 657.728L567.679 659.159L567.443 660.593L568.874 662.744L569.594 663.222L576.286 664.417L578.676 665.612H580.107L580.588 665.134L582.497 664.659L584.173 667.049L586.8 668.244L588.473 666.329L594.928 667.288V668.244L597.796 670.634L598.75 671.109V674.219L603.53 675.172L604.488 672.068L606.398 671.348L612.373 675.889H613.331L615.958 673.977H618.111L618.348 675.172L617.87 677.804L618.828 679.713L620.501 678.518L620.26 676.848L622.174 674.219L624.564 672.782L625.518 673.024L625.759 674.933L628.625 675.889H629.82L630.778 674.458L632.688 674.694L633.168 675.172V675.889L635.559 677.084L639.38 679.713L643.443 676.609L644.88 675.889L650.377 675.414L654.915 673.738L656.588 673.499H658.742L664.239 674.219L667.824 673.024L668.538 672.304L680.73 678.757L682.879 679.474L683.837 680.669L685.032 680.908L685.749 627.133L681.447 593.672L681.208 578.376Z" fill="#EF0C27" stroke="#19191A"/>
<path d="M905.627 625.94L923.552 690.231L925.225 691.904L926.657 696.445L927.615 698.36L929.766 699.791L931.437 701.706L930.483 704.335L932.632 706.961L932.395 707.92L930.005 711.266V715.327L928.571 718.912L928.81 724.411L931.917 731.101L931.437 738.99L934.546 743.77L935.022 745.68L935.263 747.116L937.653 749.506L937.412 751.416L939.087 753.806L1008.88 749.506L1009.83 752.85L1010.79 754.286L1014.61 754.762L1015.33 751.177L1013.18 744.485L1013.42 742.095L1014.13 740.9L1016.05 739.466L1021.06 741.856L1025.61 742.095L1027.76 741.38L1027.04 736.361L1026.08 733.73V730.386L1026.56 727.755L1030.15 717.241L1030.86 712.7L1032.54 708.396L1034.69 704.096L1036.84 701.945L1038.03 701.464L1038.51 700.03L1036.6 699.555V698.835H1035.4L1031.82 698.596L1030.86 697.879L1029.91 696.445L1028.47 690.231L1025.37 685.929L1021.54 684.495L1019.63 678.045L1017.24 675.174L1016.05 671.83L1013.89 670.874L1009.59 669.199L1006.96 665.855L1004.1 663.941L1003.86 662.27L1002.42 659.161L1001.47 658.205L997.404 656.771L989.517 649.364L985.932 648.169L984.976 645.779L981.627 642.909L979.237 638.129L976.847 635.739L975.894 633.829L970.872 632.871L964.183 629.525L962.032 627.615L964.422 622.594L966.092 621.16L967.287 619.489L967.529 618.294L967.287 617.813L930.483 623.074L905.627 625.94Z" fill="#EF0C27" stroke="#19191A"/>
<path d="M1131 541.574L1070.05 553.282L1006 563.798L1004.81 563.323L1002.18 564.037L995.486 564.754L995.962 563.559L989.272 564.754V565.474L948.881 570.493L950.552 568.818L959.158 564.754L960.112 562.603L964.892 559.257L965.133 557.109L965.85 555.914L968.24 554.477L968.477 551.848L970.867 549.697L983.297 538.942L984.012 536.552L984.97 537.269L984.012 539.659L987.838 543.244L993.096 545.159L995.486 545.398L998.352 543.008L998.593 541.332L1000.51 540.379L1002.42 542.049L1003.61 542.769L1005.52 542.288L1011.5 539.898L1012.46 536.074H1013.17L1014.61 537.269L1019.39 532.967L1021.06 533.923L1025.12 528.667L1024.17 526.514L1024.41 522.929L1028.47 515.283L1033.73 495.444L1034.68 495.207L1037.55 497.117L1038.03 498.312L1039.46 499.987L1042.57 499.268L1044.72 495.683L1046.63 488.274L1048.31 485.408L1051.17 486.603L1053.09 482.298L1055 481.582L1056.67 479.191L1058.1 475.128L1059.3 474.172L1059.54 473.216L1058.58 472.263L1059.06 466.288L1059.54 465.332L1060.49 464.612L1071.49 471.543L1073.16 472.021L1073.64 471.543L1074.83 465.568H1076.75L1078.66 466.288L1081.05 467.002L1079.61 469.392L1082.24 472.263H1086.78L1088.94 474.411L1091.8 475.606L1093.95 478.238L1093.48 479.672L1090.61 484.928L1088.7 489.708L1089.17 493.054L1092.76 493.293L1095.87 491.383L1098.26 494.249L1099.69 494.968L1100.89 495.207L1102.8 496.878L1103.75 497.117L1105.43 496.163L1106.38 496.402L1111.88 499.268L1115.7 500.463L1117.85 502.853L1117.62 504.048L1116.18 505.243L1116.9 509.067L1116.18 509.784L1114.99 510.503V510.979L1119.29 512.893L1120.72 515.998L1120.48 517.193L1119.77 518.149L1116.42 517.432L1115.94 518.868L1117.14 520.302L1117.85 520.063V521.258L1115.94 521.973H1114.99L1114.75 522.692L1115.94 523.648L1118.81 523.887L1121.44 524.843L1122.16 526.277L1119.29 529.143H1117.85L1114.27 527.948V529.382L1116.66 530.577L1118.81 532.489L1121.44 531.533L1124.07 529.623H1126.7H1130.28L1130.52 530.099L1133.39 538.464L1131.24 540.379H1130.76L1131 541.574Z" fill="#EF0C27" stroke="#19191A"/>
<path d="M1129.81 497.598L1130.53 497.835L1130.77 500.464L1130.53 501.898L1128.61 504.049L1127.66 505.963L1126.94 510.743L1127.66 515.043V519.584L1128.85 522.93L1129.57 518.389L1131 513.848L1133.87 507.158L1135.07 504.288L1135.78 501.659L1135.55 497.835L1135.78 496.403L1139.13 493.774L1139.61 492.579L1131.72 495.208L1129.81 497.598Z" fill="#EF0C27" stroke="#19191A"/>
<path d="M1129.57 389.805L1149.4 396.734L1150.84 400.08L1149.4 401.514L1148.45 402.709L1147.97 404.621L1148.21 407.969L1146.78 408.206L1145.82 408.925L1144.14 412.749V414.181L1144.62 414.42L1145.58 413.944L1146.06 412.749L1149.17 409.879L1151.08 410.12H1155.38L1156.81 408.925L1160.87 407.969L1164.22 406.294L1166.61 405.099L1169.24 402.47L1180.24 395.061L1183.1 393.149L1185.49 391.239L1187.41 390.52L1188.6 389.086L1190.99 387.654L1192.42 386.696L1193.62 384.069L1193.86 383.111L1193.38 382.635L1190.99 385.025L1188.6 385.74L1185.73 386.935L1184.06 388.369L1183.1 390.281L1180.47 391.476L1179.99 390.759L1180.95 388.849L1182.86 386.696L1185.02 383.111L1184.3 382.394L1182.38 384.306L1181.19 386.22L1179.52 387.891L1173.3 391.239L1165.42 395.3L1158.96 398.409L1156.57 399.604L1154.18 402.95L1152.75 401.994L1152.27 399.604L1153.23 396.734L1155.38 395.061L1152.99 392.671L1156.57 388.849L1156.81 387.174L1155.14 385.264L1152.27 362.795L1151.31 362.081L1151.56 341.048L1149.17 336.029L1147.49 331.01V326.708L1146.06 319.299L1143.67 315.475H1142.23L1142.71 316.429L1142 316.67L1141.28 315.475L1141.75 311.41L1137.93 302.808L1137.69 299.46L1139.13 296.355L1137.93 289.899L1134.58 281.059L1134.35 280.103L1133.15 278.669L1133.87 277.235L1132.19 274.364L1103.51 281.534L1103.04 280.578L1101.84 281.059L1099.69 282.254L1092.76 289.424L1085.83 298.984L1084.63 300.655L1085.35 302.089L1084.16 305.915L1082.72 307.349L1075.55 314.519L1074.83 315.953L1075.79 318.819L1076.51 319.299L1078.42 319.06L1079.85 320.014L1080.09 321.45L1078.66 323.123L1079.38 325.513L1081.05 328.14L1080.57 332.444L1076.03 334.354L1069.34 341.524L1064.32 343.199L1052.85 346.545L1049.02 345.109L1045.44 344.394L1039.46 345.109L1033.25 346.304L1026.56 348.936L1023.45 351.084L1022.25 354.669V357.301L1026.8 362.32L1027.51 363.034L1027.99 365.424L1027.27 367.339L1025.6 368.534L1023.93 372.838L1014.61 382.394L1011.02 385.025L1012.69 392.91L1110.68 373.314L1112.36 374.509L1113.07 376.179L1113.79 376.899L1114.51 376.66L1115.46 377.613L1116.9 378.094L1120.01 383.83L1120.72 385.979L1121.68 386.935L1121.92 387.654L1127.65 388.13L1129.57 389.805Z" fill="#202022" stroke="#4F4F51"/>
<path d="M935.023 745.678L867.626 752.37V753.565L867.865 754.284L867.148 754.999L867.387 757.15L869.297 760.018L870.733 761.213H871.45L873.363 762.889L873.84 763.845L872.645 766.71V767.43L874.077 768.144L874.558 768.864V769.578L873.124 770.773V772.685L873.84 773.163L877.662 771.968L878.857 771.015L880.294 767.43L880.772 766.235L882.442 766.71H883.879L884.596 766.235L885.791 766.474L885.552 767.43L882.923 769.578L883.401 770.059L885.552 769.1L888.659 768.864L900.848 764.798H902.521V765.754L900.367 767.669L901.326 768.144L906.584 768.625L911.603 770.534L917.098 773.405L918.534 773.644L918.293 771.968L919.488 771.015L920.683 772.449L923.792 773.405L924.509 773.88L924.748 774.358L923.553 775.075L924.031 776.034L930.723 781.05L931.201 782.965L930.962 784.635L930.484 785.83L929.528 784.874L929.048 783.679L928.572 784.874L928.811 786.308L930.243 786.789L939.566 784.16L940.044 782.965L943.388 782.723L951.038 776.509H956.057V775.314L955.338 774.119L956.774 770.773L964.898 769.82L977.09 776.034L977.329 777.704L980.433 780.094L983.065 784.16L990.713 789.654L991.669 791.805L993.82 793.72L999.554 793.479L1004.1 800.171L1005.29 801.129L1004.81 803.039L1006.72 809.731L1006.01 817.379L1004.1 825.266L1004.33 831.719L1005.29 833.87L1009.83 836.979L1011.27 834.35L1009.83 833.155L1008.64 828.851L1008.88 828.134L1011.5 827.656L1013.42 831.719H1014.61L1015.09 829.57L1015.81 829.09L1017 830.046L1016.76 831.96L1015.57 834.109L1014.37 836.021L1012.7 841.04L1011.27 841.759V844.149L1012.94 846.059L1015.57 848.449L1019.63 857.531L1026.09 861.594L1026.8 861.355L1027.04 859.204H1028.95L1030.39 863.031L1030.62 865.179L1032.78 869.959L1035.4 871.635L1038.27 872.591L1043.05 885.495L1044.25 886.212L1050.7 887.646L1053.33 889.08L1060.5 897.925L1063.61 900.315H1064.8L1066.72 901.271L1067.19 902.942L1065.76 903.42L1064.56 902.942H1063.85L1062.89 903.42L1062.65 904.615L1063.61 905.81L1067.19 906.527L1069.11 905.332L1071.97 905.095L1082.49 901.03L1084.88 896.73L1085.12 895.772L1083.69 890.036L1083.92 887.17L1086.08 882.151L1088.23 882.627L1085.59 872.11L1086.31 866.855L1085.84 857.056L1083.69 849.166L1082.25 846.3L1074.84 836.74L1070.3 825.985L1064.56 818.335L1064.8 817.379L1064.33 815.469L1062.41 811.404V809.494L1064.33 806.865V805.67L1056.91 795.391L1052.61 791.33L1049.74 789.654L1049.03 788.22L1044.25 781.77L1037.79 770.295L1036.12 763.603L1032.06 754.284V752.609L1030.39 751.175L1029.43 750.458L1028.71 743.768L1027.76 741.378L1025.61 742.093L1021.06 741.854L1016.05 739.464L1014.14 740.898L1013.42 742.093L1013.18 744.483L1015.33 751.175L1014.61 754.76L1010.79 754.284L1009.83 752.848L1008.88 749.504L939.088 753.804L937.413 751.414L937.654 749.504L935.264 747.114L935.023 745.678Z" fill="#EF0C27" stroke="#19191A"/>
<path d="M332.734 556.868L308.355 729.192V729.431L330.585 731.821L332.256 718.436L374.323 723.692L373.845 723.216L372.886 720.826L373.845 718.912L373.606 718.436L372.886 717.48L373.364 717L464.902 725.607L475.899 587.939H477.094L478.047 573.12L332.734 556.868Z" fill="#EF0C27" stroke="#19191A"/>
<path d="M1115.46 444.298L1095.15 447.883L1031.1 460.313L1034.68 476.088L1035.88 473.934L1037.31 473.217L1042.09 467.723L1044.24 467.242L1045.91 464.374L1047.59 463.657L1049.02 460.552L1050.22 461.984L1053.08 462.703L1056.19 461.747L1056.91 459.594L1064.56 456.967L1066.23 457.923H1068.14L1070.05 457.204L1071.01 459.833L1072.2 460.072L1074.83 465.569H1076.75L1078.66 466.289L1081.05 467.003L1079.61 469.393L1082.24 472.264H1086.78L1088.93 474.412L1091.8 475.607L1093.95 478.239L1093.48 479.673L1090.61 484.928L1088.7 489.708L1089.17 493.054L1092.76 493.293L1095.87 491.384L1098.26 494.249L1099.69 494.969V494.013L1102.8 493.293L1106.38 493.532L1111.4 495.208L1113.79 496.403L1114.75 496.164L1114.99 495.208L1113.79 494.013L1111.64 490.428L1109.49 489.947L1109.25 489.469L1109.49 488.513H1110.21L1111.16 487.318L1108.53 486.362L1106.62 483.258L1104.95 477.997L1104.47 475.849L1103.99 472.739L1104.95 467.484L1104.71 465.808L1103.75 464.852L1103.51 463.418L1103.99 462.223L1104.71 461.028L1105.43 459.118L1109.49 456.009L1110.21 455.053L1111.4 450.992L1114.03 451.229L1114.99 452.663L1113.07 456.009L1111.64 458.399L1110.21 460.313L1109.01 462.942L1110.21 465.569L1112.12 466.289L1113.31 472.022L1113.07 472.978L1109.97 474.893L1110.44 476.088L1113.07 477.044L1113.79 478.239L1113.07 480.868L1113.79 482.299L1113.55 483.733L1114.99 487.079L1118.33 489.469H1120L1121.2 488.513H1123.11L1124.07 488.994L1123.59 490.903L1125.5 494.249V495.444L1126.7 497.359L1129.56 497.117L1130.04 497.598L1131.72 495.208L1139.6 492.579L1139.84 491.384L1140.32 489.469L1142.23 479.434L1141.99 478.478L1126.7 481.824L1115.46 444.298Z" fill="#EF0C27" stroke="#19191A"/>
<path d="M684.851 680.813L683.656 680.574L682.698 679.379L680.549 678.662L668.357 672.209L667.643 672.928L664.058 674.123L658.561 673.404H656.407L654.734 673.643L650.196 675.318L644.699 675.794L643.262 676.513L639.199 679.618L635.377 676.989L632.987 675.794V675.077L632.507 674.599L630.597 674.362L629.639 675.794H628.444L625.578 674.838L625.337 672.928L624.383 672.687L621.993 674.123L620.079 676.752L620.32 678.423L618.647 679.618L617.689 677.708L618.167 675.077L617.93 673.882H615.777L613.15 675.794H612.192L606.217 671.253L604.307 671.972L603.349 675.077L598.569 674.123V671.014L597.615 670.538L594.747 668.148V667.192L588.291 666.234L586.618 668.148L583.992 666.953L582.316 664.563L580.407 665.039L579.926 665.517H578.495L576.105 664.322L569.413 663.127L568.693 662.649L567.262 660.498L567.498 659.064L566.781 657.632L563.913 656.198L562.243 657.632L557.221 658.108L555.548 657.393L551.963 652.852L550.531 651.657L547.902 651.177L549.814 592.143L476.919 587.841H475.724L464.727 725.509L373.189 716.902L372.711 717.383L373.43 718.339L373.669 718.814L372.711 720.729L373.669 723.119L374.147 723.594L378.927 726.704L380.122 729.808L382.034 734.113L386.814 737.218L400.916 754.189L412.866 763.749L413.819 765.42L414.536 767.573L414.3 770.2L415.256 771.634L417.885 775.938L417.646 785.735L418.363 788.603L422.665 795.534L440.59 808.679L452.777 816.33L456.125 816.805L458.515 815.61L461.142 812.264L463.295 810.594L468.553 798.644L470.943 794.82L472.856 793.864L477.155 795.059L478.114 794.82L478.831 792.905L480.026 791.474L482.416 792.43L484.567 793.864L491.495 794.82L493.407 795.773L497.712 796.968L500.102 796.015L505.599 799.119L506.794 802.229L507.748 802.704L508.226 803.899L509.184 804.138L511.574 805.575L514.681 809.874L519.939 814.415L522.566 818.479L522.807 820.391L530.694 839.274L531.889 843.096L540.491 852.895L541.208 855.285L547.183 861.74L548.856 862.694L551.246 865.564L551.963 867.235L551.487 873.691L553.399 876.081L554.116 883.251L556.026 885.641L562.243 897.591L562.718 900.934L567.023 901.415L571.803 904.281L577.536 906.195L586.143 911.69L597.615 912.646L600.005 912.885L606.217 917.187L609.324 918.621L612.192 915.036L614.823 915.755L615.777 914.797V913.126L613.15 912.17L613.628 911.212L610.997 908.105L607.175 893.764L605.263 888.031L608.129 879.424L607.653 876.556L606.934 876.081L606.217 875.839L605.739 875.361V874.644L606.217 874.166L610.043 871.776L612.433 863.889L610.519 863.174L609.802 859.35L611.714 856.96L614.345 858.87L618.647 855.765L619.842 851.7L617.689 850.029L618.647 848.115L619.603 848.595L620.798 848.834L621.752 847.639L623.188 848.354H624.622L625.817 847.876L626.054 846.92V843.574L626.532 842.62L627.727 842.379L628.207 842.859L629.402 843.096L635.855 841.425L636.572 841.184L636.809 839.989L636.333 839.274L632.987 837.36V835.926L638.963 834.255L639.919 833.06L641.589 832.58L642.067 833.06L641.353 833.775L642.309 835.45H643.262L644.457 834.494L653.781 831.624L669.316 821.586L670.033 817.764L677.203 811.55L677.442 810.594L674.332 806.289L675.052 802.943L679.832 801.034H680.788L680.071 804.855L680.549 806.05L686.046 805.333L687.002 806.77L697.996 801.99L704.449 801.27L704.688 801.034L704.449 800.314L703.254 799.119L702.776 797.21L703.493 796.254L704.208 794.339L706.122 792.43L708.512 785.735L706.598 782.869V780.718L707.078 779.284L706.839 777.37L707.556 773.548L709.468 772.114L710.663 769.244L711.619 763.749V760.403L710.663 755.623L708.751 752.275L707.793 751.319L708.273 749.648L707.317 748.453L705.883 745.583L704.208 744.149L703.732 743.193L704.688 739.849L702.537 735.545L698.952 732.198L697.757 730.289L697.038 699.694V683.442L693.216 682.488L689.868 683.922L688.673 683.683L684.851 680.813Z" fill="#EF0C27" stroke="#19191A"/>
<path d="M506.973 482.063L662.803 485.649L672.841 493.294L669.731 497.118L669.017 500.945L670.69 502.854L673.316 504.049L674.753 509.31L677.143 510.98L679.533 511.458L680.487 512.175L681.206 578.379L501.715 574.555L506.973 482.063Z" fill="#EF0C27" stroke="#19191A"/>
<path d="M462.988 447.644L468.249 386.462L591.572 392.913L594.92 397.693H598.983L602.09 396.978L604.48 398.649L606.39 402.712L609.497 403.429L612.845 402.712L615.95 400.322H620.016L622.406 401.039L632.202 407.492L636.982 410.838V413.947L640.331 415.857V418.008L638.897 422.312L641.287 424.463L642.721 429.482L645.347 431.872L644.394 434.262L645.347 436.889L648.457 439.279L649.41 441.669L648.457 444.298L647.738 449.078L650.847 450.754L651.801 453.144L650.128 455.534L650.847 457.924L652.518 460.314L651.801 462.704L652.518 466.047L653.476 467.484L655.149 470.113L657.539 472.503L658.256 476.564L661.602 480.629L663.036 481.583L662.319 484.69L662.797 485.648L506.967 482.063L508.879 451.468L462.988 447.644Z" fill="#EF0C27" stroke="#19191A"/>
<path d="M468.246 386.464L473.263 325.994L475.894 296.36L634.831 303.289L635.068 305.92L633.636 309.025L629.81 313.091L630.051 315.72L637.699 323.129L637.938 378.814L636.504 378.575L634.59 378.814L635.309 380.726L636.263 382.399L635.068 385.506L636.743 387.179L637.699 391.72L636.026 393.154L636.504 395.786L634.114 401.28L636.504 407.016L636.98 410.126V410.84L632.2 407.494L622.403 401.041L620.013 400.324H615.947L612.843 402.714L609.494 403.431L606.387 402.714L604.478 398.651L602.088 396.981L598.981 397.695H594.918L591.569 392.915L468.246 386.464Z" fill="#EF0C27" stroke="#19191A"/>
<path d="M475.898 296.357L483.547 203.86L524.653 206.731L553.811 208.879L622.407 210.794L622.644 213.184L624.797 220.354L624.08 222.505L623.363 227.524L623.602 236.126L625.512 245.925L628.143 248.795L629.814 257.636L630.292 272.935L631.25 276.042V281.536L631.487 283.926L635.072 294.681L634.594 298.747L634.835 303.286L475.898 296.357Z" fill="#EF0C27" stroke="#19191A"/>
<path d="M473.27 325.992L322.461 307.591L320.308 322.887V323.126L318.159 320.973L317.201 317.388L314.096 314.042L311.467 316.193L311.706 318.583H305.492L304.536 319.063L301.907 317.627L296.171 317.388L294.976 316.193L293.3 316.432L291.391 318.346L289.237 318.107L284.457 316.193L283.262 317.151L281.831 320.017L278.724 318.346L277.287 314.998V313.803L278.007 309.742L277.529 307.828L275.375 304.962H272.749L270.359 301.138L271.79 298.507V296.597L269.4 293.251L267.969 289.188V282.971L268.686 279.147L267.49 278.191L266.773 277.477L265.815 275.326L265.1 274.848L264.142 275.326L257.45 280.581L256.255 281.062L251.955 276.757L253.15 274.367L252.911 272.458V269.826L256.496 267.436L256.735 264.807L256.255 264.332L256.496 259.552L258.167 258.118L257.93 256.442L262.71 246.645L261.276 244.972L256.735 244.255L256.496 241.865L253.15 241.626L251.475 237.802L250.76 233.976L247.175 225.852L241.915 220.831L239.525 217.487L238.093 215.812L239.288 214.38L240.242 211.271L239.288 206.251L235.703 198.367L240.961 169.206L263.666 173.03L324.371 183.31L386.512 193.826L483.549 203.861L475.901 296.358L473.27 325.992Z" fill="#202022" stroke="#4F4F51"/>
<path d="M462.985 447.642L468.245 386.46L473.262 325.99L322.453 307.589L320.3 322.885L309.308 398.647H309.069L304.289 428.285L349.222 435.216L462.985 447.642Z" fill="#EF0C27" stroke="#19191A"/>
<path d="M332.736 556.87L349.23 435.22L462.993 447.645L508.884 451.47L506.972 482.064L501.714 574.556L478.05 573.122L332.736 556.87Z" fill="#EF0C27" stroke="#19191A"/>
<path d="M332.736 556.868L349.229 435.218L304.297 428.287L309.077 398.648L241.914 386.698L212.52 537.989L332.736 556.868Z" fill="#EF0C27" stroke="#19191A"/>
<path d="M221.596 165.384L240.957 169.205L235.699 198.366L239.284 206.251L240.238 211.27L239.284 214.379L238.089 215.811L239.521 217.486L241.911 220.83L247.172 225.852L250.757 233.975L251.471 237.802L253.147 241.626L256.493 241.865L256.732 244.255L261.273 244.972L262.707 246.645L257.927 256.441L258.163 258.117L256.493 259.551L256.251 264.331L256.732 264.807L256.493 267.436L252.908 269.826V272.457L253.147 274.367L251.952 276.757L256.251 281.061L257.446 280.581L264.138 275.325L265.097 274.847L265.811 275.325L266.77 277.476L267.487 278.191L268.682 279.147L267.965 282.971V289.187L269.396 293.25L271.786 296.596V298.506L270.355 301.137L272.745 304.961H275.372L277.525 307.827L278.003 309.741L277.284 313.802V314.997L278.72 318.346L281.827 320.016L283.259 317.151L284.454 316.192L289.234 318.107L291.387 318.346L293.297 316.431L294.972 316.192L296.167 317.387L301.903 317.626L304.532 319.063L305.488 318.582H311.702L311.463 316.192L314.092 314.041L317.197 317.387L318.155 320.972L320.304 323.126V322.887L309.312 398.648H309.073L241.911 386.698L175.471 372.841L187.421 318.821L190.526 314.997L190.767 311.412L191.484 310.937L191.721 309.981L192.679 308.307L191.242 305.917L187.657 304.242L186.94 302.332L187.899 298.747L193.396 290.382L196.742 288.707L199.132 286.317V284.166L201.044 282.495L211.558 266.241L210.841 261.941L208.692 260.027L206.778 259.551L204.629 256.68L204.151 254.051L203.912 250.23L204.866 248.796L205.346 247.12L203.912 244.73V242.101L204.866 240.906L221.596 165.384Z" fill="#202022" stroke="#4F4F51"/>
<path d="M308.358 729.191L332.736 556.868L212.52 537.989L209.65 553.763L205.111 566.67H202.48L200.57 564.755L200.807 563.799L199.136 561.648L194.356 560.453L190.771 561.17L189.576 562.604L190.53 568.34L189.098 582.919L190.293 585.07L188.381 591.524L187.186 593.675L187.425 595.109L187.186 599.411L187.425 601.084L187.186 602.279L189.098 606.105V608.971L190.052 611.124L191.01 614.709L192.442 615.665L193.878 617.575L194.356 620.445L193.878 621.399L192.92 620.684L189.815 623.311L186.23 624.506L183.601 628.091L181.687 636.456L176.907 642.67H174.28L174.041 644.346L174.758 646.494L174.517 648.17L173.322 651.991L174.28 653.906L177.626 656.771L178.102 657.966L177.148 659.4L176.67 661.315L174.517 663.466L173.322 663.224L169.5 662.51L167.588 669.68L256.497 720.826L308.358 729.43V729.191Z" fill="#EF0C27" stroke="#19191A"/>
<path d="M110.224 357.54L87.2773 447.881L187.422 595.106L187.183 593.672L188.378 591.521L190.29 585.068L189.095 582.917L190.527 568.338L189.573 562.602L190.768 561.168L194.353 560.451L199.133 561.646L200.804 563.797L200.567 564.753L202.477 566.668H205.108L209.647 553.761L212.517 537.987L241.912 386.696L175.472 372.839L110.224 357.54Z" fill="#202022" stroke="#4F4F51"/>
<path d="M205.344 247.122L204.863 248.797L203.91 250.231L204.149 254.053L161.606 244.017L158.499 245.451H156.348L154.195 244.732L151.329 244.493L149.656 243.778H147.502L145.112 244.493L142.008 243.778H139.379L136.269 245.212L133.879 245.688L128.624 244.973L127.187 244.017L124.083 242.822L114.283 244.017L112.369 241.388L104.245 238.998L100.419 238.518L95.4022 238.998L87.9931 238.518L81.7767 235.172L80.5817 232.782L81.0621 225.136L81.5401 223.702L80.8231 218.922L76.282 215.576L72.9336 215.098L72.458 214.142L70.5435 212.227L66.7219 210.557L66.2415 210.076L62.4198 207.686L61.2248 207.447L60.5078 207.211V206.016L61.4614 202.431L62.1784 200.758V199.321V198.367L62.8978 198.126L63.3735 198.367L63.6148 200.516L63.3735 201.711L63.1368 202.431L63.3735 203.387L66.2415 200.758L66.0049 199.802V198.367L67.1999 196.931L66.2415 195.021L64.5685 194.541L64.3319 190.002L65.0465 189.522L66.7219 190.002L67.1999 189.285L70.3069 188.566L68.1535 186.656V186.176L67.4365 185.461L65.2879 186.895V183.547V181.637L66.0049 177.811L65.5269 174.945L65.2879 172.316L66.0049 166.102L66.4829 163.471L63.8515 155.106L64.0929 149.372L65.0465 146.265L65.7635 141.96L80.8231 152.477L88.7101 156.781L94.9218 158.691L98.5069 160.842H101.614L102.809 161.561L104.004 163.471L104.482 170.882L104.004 172.555L101.614 174.226L100.66 177.572V180.201L100.897 181.637L100.66 183.071L99.9433 184.266V185.461L101.377 186.656L104.245 185.222L106.157 178.53L107.352 177.096L108.547 173.987L112.61 169.926L112.847 168.251L111.174 162.276L108.067 153.911L107.83 152.477L108.784 152.001L110.457 152.477L112.369 148.655L112.132 144.35H109.503L109.262 141.485L109.025 135.985L141.049 144.831L171.403 152.957L221.593 165.385L204.863 240.908L203.91 242.103V244.732L205.344 247.122Z" fill="#202022" stroke="#4F4F51"/>
<path d="M193.873 617.584L192.439 615.665L191.008 614.719L190.052 611.129L189.096 608.975V606.114L187.186 602.283L187.425 601.088L187.186 599.42L187.425 595.113L87.278 447.892L110.222 357.547L19.4012 332.69L18.2062 334.361L16.5379 338.424L18.2062 342.251L17.4916 350.616L15.3358 354.201L13.4285 355.871L12.7091 359.691V361.61L4.10262 371.167L1.00036 376.187L1.23698 379.291L0.517578 380.491L1.00036 384.313L1.95638 387.185L3.39039 388.612L4.10262 390.288L4.3464 391.961L7.21444 398.421L7.93145 404.872L7.21444 406.538L5.0658 409.886L3.149 416.578L3.627 418.963L4.3464 421.836L2.43677 424.943L6.01942 434.267L7.93145 438.327L12.7091 443.588V454.582L11.0385 457.928L14.3845 459.357L17.9672 464.379L21.318 465.578L22.2716 464.142V462.467L24.9006 459.838L25.6153 460.077L25.1396 464.379L25.6153 467.727L27.2907 473.222L27.0493 476.097L26.3347 477.043L22.7472 474.417L22.2716 473.222V469.398L21.318 467.488L20.3572 467.964L19.6402 472.744L18.4428 473.222L18.9256 475.848L18.2062 477.287L17.9672 487.562L19.4012 491.147L23.2228 494.493L27.0493 496.164L28.7247 498.078L28.2467 503.092L25.6153 505.967L24.1812 506.443L22.7472 507.877L22.2716 515.528L27.5297 523.169L28.0077 526.044L29.4393 528.909L29.9197 532.499L37.3288 545.635L40.1968 548.025L39.9554 551.139H39.2408L38.5214 552.093L38.7604 555.443L41.6332 556.873L42.5869 560.699L41.8675 562.138L41.1504 565.479L40.1968 570.735L38.5214 572.893V575.278L41.3942 577.905L45.9281 581.01H49.5155L60.5121 586.033L64.3361 586.985L68.1625 589.86L70.7916 596.554L75.0912 600.378L78.6739 601.805L84.6514 602.52L86.8024 604.915L86.561 606.585L87.517 608.495L86.322 611.365L88.2364 613.519L92.0628 613.28L97.7941 618.535L100.428 623.079L103.289 625.949L108.313 636.7L108.552 646.504L108.313 647.46L109.266 650.084H109.747L110.461 651.04L109.988 651.284L109.266 652.954L109.988 655.82L110.461 656.771L169.5 662.519L173.324 663.234L174.519 663.466L176.667 661.329L177.145 659.41L178.104 657.976L177.623 656.771L174.277 653.91L173.324 651.996L174.519 648.174L174.758 646.504L174.038 644.35L174.277 642.679H176.909L181.689 636.461L183.601 628.096L186.23 624.515L189.815 623.32L192.915 620.694L193.873 621.403L194.354 620.445L193.873 617.584Z" fill="#202022" stroke="#4F4F51"/>
<path d="M191.72 309.98L191.483 310.936L190.766 311.411L190.525 314.996L187.42 318.82L175.47 372.84L110.222 357.541L19.4012 332.685L18.2062 331.251L16.5332 325.037L17.9648 321.93V319.301L19.8792 314.521L18.9232 304.961L20.3549 302.81L22.2693 301.851L23.4643 300.18L24.6593 297.071L25.8543 295.876L26.3299 291.576L27.2883 291.335L33.0244 284.406L35.89 277.951L40.9115 268.63L46.4086 251.661L50.4716 244.49L54.0566 233.974L58.3587 220.829L60.0317 216.29L60.7487 212.225V211.03L62.8998 210.315L65.2898 211.03L66.7238 210.554L70.5455 212.225L72.4599 214.139L72.9355 215.095L76.2839 215.573L80.825 218.92L81.542 223.7L81.064 225.134L80.5836 232.779L81.7786 235.169L87.995 238.515L95.4041 238.996L100.421 238.515L104.247 238.996L112.371 241.386L114.285 244.015L124.084 242.82L127.189 244.015L128.626 244.971L133.881 245.685L136.271 245.21L139.381 243.776H142.01L145.114 244.49L147.504 243.776H149.658L151.331 244.49L154.196 244.729L156.35 245.449H158.501L161.608 244.015L204.15 254.051L204.628 256.68L206.777 259.55L208.691 260.026L210.84 261.94L211.557 266.24L201.043 282.494L199.131 284.165V286.316L196.741 288.706L193.395 290.381L187.898 298.746L186.94 302.331L187.657 304.241L191.242 305.917" fill="#EF0C27"/>
<path d="M191.72 309.98L191.483 310.936L190.766 311.411L190.525 314.996L187.42 318.82L175.47 372.84L110.222 357.541L19.4012 332.685L18.2062 331.251L16.5332 325.037L17.9648 321.93V319.301L19.8792 314.521L18.9232 304.961L20.3549 302.81L22.2693 301.851L23.4643 300.18L24.6593 297.071L25.8543 295.876L26.3299 291.576L27.2883 291.335L33.0244 284.406L35.89 277.951L40.9115 268.63L46.4086 251.661L50.4716 244.49L54.0566 233.974L58.3587 220.829L60.0317 216.29L60.7487 212.225V211.03L62.8998 210.315L65.2898 211.03L66.7238 210.554L70.5455 212.225L72.4599 214.139L72.9355 215.095L76.2839 215.573L80.825 218.92L81.542 223.7L81.064 225.134L80.5836 232.779L81.7786 235.169L87.995 238.515L95.4041 238.996L100.421 238.515L104.247 238.996L112.371 241.386L114.285 244.015L124.084 242.82L127.189 244.015L128.626 244.971L133.881 245.685L136.271 245.21L139.381 243.776H142.01L145.114 244.49L147.504 243.776H149.658L151.331 244.49L154.196 244.729L156.35 245.449H158.501L161.608 244.015L204.15 254.051L204.628 256.68L206.777 259.55L208.691 260.026L210.84 261.94L211.557 266.24L201.043 282.494L199.131 284.165V286.316L196.741 288.706L193.395 290.381L187.898 298.746L186.94 302.331L187.657 304.241L191.242 305.917" stroke="#19191A"/>
<path d="M806.201 587.942L841.574 585.074V582.208L840.615 580.533L844.681 580.057L846.354 581.252L946.735 571.929L948.886 570.497L950.556 568.822L959.163 564.759L960.117 562.608L964.897 559.262L965.138 557.113L965.855 555.918L968.245 554.482L968.482 551.852L970.872 549.701L983.302 538.946L984.017 536.556H982.346L980.673 535.361H979.956L979.237 534.408L976.847 533.213L975.652 533.452L974.937 532.971L971.83 528.191L966.811 521.977L966.333 520.068L966.572 518.153V515.287L965.855 511.461L964.897 510.507L962.27 508.593L959.641 507.876L957.251 504.532L956.056 502.618L953.188 504.771L952.471 505.966L950.798 506.922L950.32 507.637L946.735 508.117L942.433 506.442L940.76 506.681L938.848 509.312L933.826 505.727L928.81 506.203L925.225 504.771L923.552 500.467L918.772 496.882L916.142 498.316H914.706L912.316 497.121H910.406L909.45 499.272V500.947L910.884 506.203L909.926 508.117L907.299 508.832L903.951 511.461L899.89 510.507L897.976 511.941V516.482L888.416 528.908L886.745 534.408L880.77 534.647L878.141 531.537L876.466 531.298L875.034 533.213L873.122 539.427L871.21 541.097L868.82 539.427L867.147 537.273L863.084 538.707L861.65 543.487L860.216 543.968L859.499 543.248L852.329 539.902L846.59 542.053L842.052 541.817L841.335 543.968L841.574 544.921L839.662 545.638L837.749 545.402L838.225 545.877L837.272 547.311L836.794 549.701L835.835 550.418V551.377L838.225 554.482L837.749 554.962L830.34 557.113L828.189 558.308L828.665 561.413L830.101 567.627L826.755 569.063L823.885 566.912L820.78 565.478L816.715 564.759L813.849 566.193L812.415 571.692L812.893 572.168L813.61 572.648L814.805 573.602L815.761 576.472L813.371 584.118L811.935 585.074L810.74 584.357L807.635 585.793L806.201 587.942Z" fill="#EF0C27" stroke="#19191A"/>
<path d="M1177.85 253.335L1195.06 304.96L1195.29 305.916L1195.06 308.065L1195.29 309.021L1199.6 312.369L1200.55 312.606L1201.03 314.281V315.476L1203.42 319.539L1203.9 318.344L1204.38 315.476L1204.86 311.65L1206.77 307.826L1207.96 302.09L1210.35 299.941L1210.59 298.746L1209.4 298.029L1208.2 294.68L1213.94 289.425L1214.89 290.139L1215.85 292.529L1216.57 293.249L1217.28 292.29V289.664L1217.76 288.23L1222.06 287.749L1223.98 285.84V283.925L1224.69 282.969H1226.84L1228.52 282.016L1229.23 281.06L1230.19 277.236L1229.71 274.365L1232.58 271.261V269.349H1233.77L1236.88 269.824L1238.32 269.11L1239.27 267.434L1240.47 264.569L1241.66 264.33L1243.57 260.983L1246.92 261.22L1249.31 263.61L1252.66 257.635L1255.52 256.203L1260.06 252.14L1261.26 249.989L1261.98 249.509H1263.17L1265.32 248.314L1266.52 245.685L1266.04 243.775L1264.13 242.819L1263.89 243.058L1262.69 242.58L1263.41 240.429L1264.13 239.949V238.278L1262.22 234.454L1259.83 233.259L1258.39 233.498L1257.67 234.454L1255.76 234.93L1253.61 234.215L1251.7 226.565L1252.42 225.609L1251.94 224.175L1251.22 223.219H1249.79L1249.07 223.938L1245.72 222.743H1243.81L1242.86 222.024L1241.42 217.485L1241.18 216.29L1230.67 182.83L1221.35 177.093L1218.96 176.854H1216.57L1215.85 178.289L1215.13 179.959H1213.94L1210.59 181.635L1205.81 185.459L1204.38 185.934L1202.46 183.544L1202.94 180.198L1201.99 178.764H1200.55L1196.97 180.198L1189.32 206.249L1188.84 210.073L1190.28 211.988L1190.51 214.854L1189.56 216.768L1188.36 217.963L1187.41 220.353L1190.04 230.869L1188.6 234.215V237.083L1184.78 242.1L1184.3 244.014L1185.73 247.599L1185.5 248.075H1183.34L1183.58 250.704L1182.87 252.379L1181.67 252.14L1180 251.423L1177.85 253.335Z" fill="#EF0C27" stroke="#19191A"/>
<path d="M1031.1 460.311L1095.15 447.88L1115.47 444.295L1115.71 444.056L1116.43 443.58L1116.66 441.666L1118.82 439.515L1121.44 439.276L1123.36 439.754L1129.33 435.691L1130.05 432.345L1133.87 428.521L1137.46 426.37L1137.7 425.655L1134.35 423.265L1133.16 421.829L1131.25 421.114L1130.53 420.156L1128.14 419.439L1126.94 415.854L1124.08 415.376L1123.6 414.9L1123.36 409.401L1124.79 408.445L1124.55 405.34L1122.64 403.425V402.469L1123.12 401.513L1125.99 398.884L1126.7 394.343V392.909L1128.38 390.28L1129.57 389.805L1127.66 388.129L1121.92 387.654L1121.68 386.934L1120.73 385.978L1120.01 383.83L1116.9 378.094L1115.47 377.613L1114.51 376.66L1113.8 376.899L1113.08 376.179L1112.36 374.508L1110.69 373.313L1012.7 392.909L1011.03 385.025L1005.77 390.044L1004.81 390.519L1004.1 389.563H1003.14L1001.94 392.67L997.643 396.494L995.73 397.689L1002.9 437.844L1007.44 464.849L1031.1 460.311Z" fill="#EF0C27" stroke="#19191A"/>
<path d="M854.232 422.311L901.077 416.335L901.316 417.767L930.952 413.945L931.428 412.511L935.013 405.341L936.449 403.427L936.208 398.647L937.403 394.825L941.229 391.716V387.655L941.946 386.936V384.785L944.097 382.875L945.054 385.026L945.768 385.265L947.205 384.307L947.921 383.351L948.4 381.2L947.682 377.137L948.158 371.881L946.726 368.535L945.768 361.126L939.078 343.676L932.386 341.525L929.757 343.201L926.648 346.305L918.763 358.016H918.046L917.329 357.541L914.222 356.346L913.266 355.39L912.071 352.761L913.027 347.981L914.461 345.83L918.283 343.44L919.241 341.286L919.478 339.616L919.958 337.465L921.868 336.506L923.543 332.684V325.036L922.348 321.21L921.153 319.061L918.763 316.191L918.046 314.759L918.524 312.845L921.153 311.891L921.631 311.174L918.524 305.675L915.893 304.241L908.008 301.136L902.272 300.18L900.358 297.79L895.819 296.834L891.517 295.4L888.407 293.249L886.498 294.92L884.108 295.876L881.718 300.18V303.526L882.196 304.96H883.152L883.627 306.394L882.674 306.87L880.762 307.826L879.328 308.784L877.652 310.935L875.982 314.04L876.457 317.386L876.938 320.495L875.026 324.08L872.397 325.514L871.919 322.885L873.114 319.776L871.919 316.43L872.397 315.235L872.158 314.281L870.963 314.996L869.529 317.386L869.051 320.256L868.092 321.929H866.422L863.554 324.319L862.598 326.47L862.117 328.141L859.727 331.011L859.49 335.792L859.251 341.286L858.773 344.396L856.861 348.456L855.188 350.846L855.666 353.475L857.817 360.17L856.622 364.23L858.295 367.816L862.598 376.9L865.702 384.307V390.521L867.139 391.955V392.911L866.183 393.867L865.466 400.32L864.27 404.861L862.598 409.402L858.773 418.245L855.427 421.116L854.232 422.311Z" fill="#EF0C27" stroke="#19191A"/>
<path d="M765.572 280.104L769.874 278.67L772.025 277.236L776.566 274.605L777.522 272.456L779.434 272.215L787.56 269.11L793.297 266.001L799.986 259.07L802.376 258.594L807.876 252.38L811.7 250.466L817.911 249.271L819.587 249.751L819.826 250.466L816.48 252.856L815.521 253.095L814.09 255.965L809.546 260.984L807.398 262.896L806.203 264.569L805.247 268.871L806.203 271.739L806.92 270.066L810.741 266.959L813.373 267.196L815.046 266.72L823.411 270.305L830.103 277.475L835.361 276.756L837.99 277.236L839.902 278.19H841.575L842.292 277.951L844.202 278.67V279.626L845.397 278.67L846.355 276.756L852.33 272.456L871.45 267.676L876.467 264.806L878.857 264.091L879.816 265.286L878.382 267.915V269.586L880.772 274.129L882.206 274.605L883.162 273.89L886.269 274.129L887.703 273.41L893.678 272.695L896.307 274.366L898.936 279.146L900.848 281.06L905.389 283.211L910.408 282.016H911.603L912.798 283.211L913.037 284.884L911.123 286.796L908.018 287.035L906.343 286.796L905.867 285.84H904.911L901.804 287.511L899.653 286.796L897.741 286.555L892.483 287.75L889.376 286.796L888.181 287.75L888.898 290.62L888.181 291.576L886.747 291.096L883.637 288.23L875.753 287.274L874.077 287.75L872.168 286.796L866.67 290.859H865.475L863.322 292.054L862.607 293.01L861.412 293.486L858.305 292.771L854.957 293.486L854.72 296.115L854.003 297.551L847.311 303.527L846.116 303.046L845.397 302.09L848.267 298.266V296.356L844.443 296.595L843.007 300.18L841.575 301.615L840.141 299.941L839.663 296.595L838.946 297.071L838.227 301.376L835.837 305.675L834.405 309.98L832.971 312.606L829.862 317.386V320.735L829.386 321.93L826.04 320.015L825.082 316.43L826.277 315.235L826.757 313.565L826.277 313.087L822.455 313.801L821.738 313.565L822.933 305.917L822.455 303.046L818.631 301.137L815.285 300.18L815.521 299.224L816.002 298.505L814.807 297.31L811.7 296.356L806.681 295.4H805.247L804.291 296.356L803.335 295.4H800.467L796.165 291.815H793.775L773.696 287.75L772.264 287.035L771.306 283.45L769.874 282.255L766.767 281.775L765.572 280.104Z" fill="#202022" stroke="#4F4F51"/>
<path d="M1151.56 341.05L1168.05 337.465L1194.1 331.49L1194.34 330.532L1195.06 329.817L1195.78 330.532L1196.25 329.817L1195.78 327.905L1197.92 327.186L1199.84 324.081L1201.51 323.601L1202.95 324.32L1203.9 327.905L1207.01 330.295L1207.73 331.727L1207.25 332.685L1205.81 333.641L1204.38 336.27L1203.42 339.616L1203.66 341.287H1206.77L1209.64 342.962L1214.42 347.742L1216.09 350.847L1218.24 353.476L1223.74 353.717L1226.85 352.281L1228.76 348.696L1227.8 347.981L1225.65 345.83L1222.78 344.635L1223.02 343.201H1225.17H1226.13L1229.71 348.457L1231.86 353.717L1231.63 356.346L1229.47 354.671L1226.85 356.585L1223.02 358.256L1219.2 361.602H1218L1217.29 361.126V359.692L1216.57 357.061H1215.85L1213.7 360.887L1210.83 364.231L1210.12 365.187L1208.44 363.277L1208.2 362.321L1207.25 362.082L1206.77 361.365L1205.09 360.407V359.451L1201.03 358.497L1199.84 355.39L1198.4 354.912L1197.45 352.042L1188.84 354.195L1168.29 359.451L1168.05 360.646L1167.57 360.887L1166.14 359.451L1152.28 362.797L1151.32 362.082L1151.56 341.05Z" fill="#EF0C27" stroke="#19191A"/>
<path d="M1188.84 354.197L1193.86 371.164L1193.14 372.842L1192.67 373.793L1192.9 374.513L1193.14 375.232L1194.34 375.469L1198.64 372.598L1201.27 370.208V368.299L1200.55 367.104V364.233L1202.46 362.323L1203.18 363.038V364.713V368.299L1203.9 369.494L1205.33 369.255V367.104H1206.29L1207.72 365.669L1209.87 365.428L1210.11 365.189L1208.44 363.279L1208.2 362.323L1207.25 362.084L1206.77 361.367L1205.09 360.409V359.453L1201.03 358.499L1199.84 355.392L1198.4 354.914L1197.45 352.044L1188.84 354.197Z" fill="#EF0C27" stroke="#19191A"/>
<path d="M1152.28 362.798L1166.14 359.452L1167.58 360.888L1168.05 360.647L1168.29 359.452L1188.85 354.196L1193.87 371.163L1193.15 372.841L1192.67 373.792L1192.91 374.512L1193.15 375.231L1190.52 375.707L1183.59 378.572L1181.68 378.333L1180.96 379.053V380.248L1180.24 380.487L1176.18 381.201L1170.44 383.833L1169.73 382.877L1166.38 386.698L1158.49 393.393L1155.39 395.063L1153 392.673L1156.58 388.852L1156.82 387.176L1155.15 385.267L1152.28 362.798Z" fill="#202022" stroke="#4F4F51"/>
<path d="M1002.9 437.849L1002.18 437.61L1000.51 439.044L1001.7 442.149L998.352 445.019L1002.9 447.17L1001.22 458.165L1000.27 460.791V463.42L1000.74 464.854L1000.98 468.439L998.352 470.829L997.157 471.31L992.618 476.565V477.76L989.75 478.48L987.838 477.999L985.926 480.15L985.687 481.345L983.536 483.26L981.146 488.516L982.102 492.34L979.231 495.447L977.322 491.862H975.41L973.02 499.032L973.498 502.617L973.02 505.726L971.347 507.16L968.957 511.221L965.85 511.46L966.567 515.286V518.152L966.328 520.066L966.806 521.976L971.825 528.19L974.932 532.97L975.646 533.45L976.841 533.211L979.231 534.407L979.951 535.36H980.668L982.341 536.555H984.011L984.97 537.272L984.011 539.662L987.838 543.247L993.096 545.162L995.486 545.401L998.352 543.011L998.593 541.335L1000.51 540.382L1002.42 542.052L1003.61 542.772L1005.52 542.291L1011.5 539.901L1012.46 536.077H1013.17L1014.61 537.272L1019.39 532.97L1021.06 533.926L1025.12 528.67L1024.17 526.517L1024.41 522.932L1028.47 515.286L1033.73 495.447L1034.68 495.21L1037.55 497.12L1038.03 498.315L1039.46 499.99L1042.57 499.271L1044.72 495.686L1046.63 488.277L1048.31 485.411L1051.17 486.606L1053.09 482.301L1055 481.584L1056.67 479.194L1058.1 475.131L1059.3 474.175L1059.54 473.219L1058.58 472.266L1059.06 466.291L1059.54 465.335L1060.49 464.615L1071.49 471.546L1073.16 472.024L1073.64 471.546L1074.83 465.571L1072.21 460.074L1071.01 459.835L1070.05 457.206L1068.14 457.926H1066.23L1064.56 456.97L1056.91 459.596L1056.19 461.75L1053.09 462.706L1050.22 461.986L1049.02 460.555L1047.59 463.659L1045.92 464.376L1044.24 467.244L1042.09 467.725L1037.31 473.219L1035.88 473.936L1034.68 476.09L1031.1 460.316L1007.44 464.854L1002.9 437.849Z" fill="#EF0C27" stroke="#19191A"/>
<path d="M901.326 417.769L910.408 497.118H912.318L914.708 498.313H916.144L918.773 496.879L923.553 500.464L925.226 504.768L928.811 506.2L933.828 505.724L938.85 509.309L940.762 506.678L942.435 506.439L946.737 508.114L950.322 507.634L950.8 506.919L952.473 505.963L953.19 504.768L956.058 502.615L957.253 504.529L959.643 507.873L962.272 508.59L964.899 510.504L965.857 511.458L968.964 511.219L971.354 507.158L973.027 505.724L973.505 502.615L973.027 499.03L975.417 491.859H977.329L979.239 495.445L982.109 492.338L981.153 488.513L983.543 483.258L985.694 481.343L985.933 480.148L987.845 477.997L989.757 478.478L992.625 477.758V476.563L997.164 471.308L998.359 470.827L1000.99 468.437L1000.75 464.852L1000.27 463.418V460.789L1001.23 458.162L1002.9 447.168L998.359 445.017L1001.71 442.147L1000.51 439.042L1002.19 437.608L1002.9 437.847L995.732 397.692L984.26 403.428L979.239 406.538L977.329 408.208L970.637 415.379L968.725 416.574L966.813 416.337H962.989L960.838 416.813L955.338 421.593L953.19 421.117L948.888 419.683L947.693 420.398L946.02 419.922L947.215 418.008L946.259 417.769L942.913 417.293L935.743 414.903L934.309 414.423L930.963 415.142V413.947L901.326 417.769Z" fill="#EF0C27" stroke="#19191A"/>
<path d="M839.898 424.222L845.873 496.639L844.917 497.834L845.392 500.464L844.439 504.288L847.307 509.785L848.263 516.479L844.917 522.454L844.678 524.364L842.527 529.144L838.703 532.729V537.27L837.508 543.008V544.203L837.747 545.398L839.659 545.635L841.571 544.918L841.332 543.964L842.049 541.813L846.587 542.05L852.326 539.899L859.496 543.245L860.213 543.964L861.647 543.484L863.081 538.704L867.144 537.27L868.817 539.423L871.207 541.094L873.119 539.423L875.031 533.209L876.463 531.295L878.138 531.534L880.767 534.643L886.742 534.404L888.413 528.905L897.973 516.479V511.938L899.887 510.504L903.948 511.458L907.297 508.829L909.923 508.114L910.882 506.2L909.448 500.944V499.269L910.404 497.117L901.322 417.769L901.082 416.337L854.238 422.312L852.804 423.507L849.219 424.939L847.307 425.897L843.002 426.612L839.898 424.222Z" fill="#EF0C27" stroke="#19191A"/>
<path d="M831.056 401.04L767.961 405.345L768.915 407.015L773.458 410.125L773.936 412.99L778.475 415.619L779.911 420.88L779.67 423.509L778.238 426.613L776.565 428.289V430.915L772.5 435.22L768.915 436.415L767.72 437.61L763.181 437.849L760.791 439.28L759.355 442.39L759.596 445.019L762.464 447.885L763.181 449.799L762.464 454.34L759.118 461.749L755.533 464.139L754.338 466.529L754.575 468.919L752.904 471.546V472.741L751.709 476.089L752.185 481.825L753.86 486.844L754.338 488.995L761.269 497.119L768.2 502.616L770.11 504.531L774.175 515.525L775.37 516.481L777.521 514.33L779.433 513.371L785.169 516.239L786.125 518.151L784.93 521.975L785.408 526.28L781.106 531.297L780.389 533.211L781.823 536.796L785.886 540.62L792.578 544.92L795.925 546.115L802.856 552.09L804.051 557.35L806.202 559.977V561.172L804.29 563.086V564.281L809.07 572.646L810.026 572.166L810.265 570.971H811.935L812.416 571.69L813.85 566.191L816.715 564.757L820.781 565.476L823.885 566.91L826.756 569.061L830.102 567.625L828.666 561.411L828.19 558.306L830.341 557.111L837.75 554.96L838.226 554.48L835.836 551.375V550.417L836.794 549.7L837.272 547.31L838.226 545.876L837.75 545.4L837.511 544.205V543.01L838.706 537.272V532.731L842.53 529.146L844.681 524.366L844.92 522.456L848.266 516.481L847.31 509.786L844.442 504.289L845.396 500.465L844.92 497.836L845.876 496.641L839.901 424.223L838.706 423.509L837.75 421.594L836.316 414.905L835.36 412.99L833.209 411.078L831.056 406.54V401.04Z" fill="#EF0C27" stroke="#19191A"/>
<path d="M930.477 623.075L931.194 615.905H933.345L934.301 615.666L936.21 613.752L936.452 611.84L936.21 610.645L937.169 608.972L938.842 606.582L943.861 604.431L949.597 602.997L955.33 597.98L957.72 597.021L961.069 593.675L962.025 590.81L962.501 590.571L963.937 590.81L964.891 589.376L965.371 588.656L967.281 586.744L968 586.986L969.671 587.939L971.585 586.986L971.824 586.03L974.931 583.64L977.082 582.681L980.906 582.445L984.969 575.511L988.315 573.599L988.554 571.69L989.032 569.775L988.791 567.385L989.271 565.475V564.756L995.961 563.561L995.485 564.756L1002.18 564.039L1004.81 563.324L1006 563.8L1070.05 553.284L1131 541.575L1131.96 542.77L1132.43 543.724L1134.11 544.68L1135.3 545.16L1136.26 546.594L1137.21 547.55L1138.41 550.416L1137.93 551.374L1138.17 551.611H1137.21L1136.97 550.655L1135.06 551.135H1133.87L1132.67 550.655L1131.72 550.894L1132.43 552.089L1132.19 552.806L1126.46 555.435L1125.26 556.63L1123.11 558.781L1119.53 559.259L1118.81 561.649V562.366L1119.53 562.605L1120.72 562.366L1124.55 560.454L1128.37 559.5L1130.52 558.064L1134.11 558.305L1134.58 558.781L1134.11 560.934L1134.58 561.89L1135.54 562.605L1136.97 562.129L1137.45 560.934L1139.6 558.305H1141.52L1142.71 561.171L1143.19 565.951L1143.67 567.385V568.341L1140.56 570.731L1139.84 572.646L1139.36 573.841L1136.97 575.75L1135.3 576.47L1133.39 577.665L1129.33 577.426L1127.89 576.945L1127.41 577.426H1126.94L1126.22 575.511V574.555L1125.5 573.841L1124.55 573.599L1123.83 574.316L1124.55 577.901L1123.83 579.096L1123.35 578.621L1124.55 580.291L1126.22 580.53L1127.89 582.445L1126.7 584.596L1127.41 585.791L1122.87 591.524L1121.44 591.766L1118.81 590.81H1116.9L1116.66 591.766L1118.33 592.961L1123.35 592.719L1126.46 591.766L1131 589.615L1131.48 587.939L1132.67 588.42L1134.35 589.851L1132.67 593.675L1129.09 597.741L1124.79 598.455L1123.11 599.411L1118.09 600.131L1114.03 607.06L1112.12 607.301V608.255L1112.36 608.496L1107.58 611.601L1104.95 614.947L1102.32 620.922L1100.89 628.092L1099.69 630.006L1097.3 630.96L1087.26 632.872L1086.31 633.83L1053.56 611.125L1025.84 614.71L1025.12 610.886L1020.34 607.06L1017.95 608.255L1017 607.06L1017.47 606.106L1017.23 605.15L984.969 608.972H984.011L983.296 609.93L976.841 612.796L976.604 614.23H974.451L967.281 617.815L930.477 623.075Z" fill="#EF0C27" stroke="#19191A"/>
<path d="M989.277 565.474L948.885 570.493L946.734 571.924L846.353 581.248L844.68 580.053L840.615 580.528L841.573 582.204V585.069L806.201 587.938L804.289 592.24L803.094 597.498L803.569 599.173L802.374 603.714L801.421 605.148L801.899 606.58L800.943 609.209L797.836 612.555L796.641 618.769L793.534 622.834L794.009 627.134L793.773 632.394L792.814 632.87L790.188 635.26L841.573 631.675L905.626 625.939L930.482 623.073L931.199 615.903H933.35L934.306 615.664L936.216 613.75L936.457 611.838L936.216 610.643L937.174 608.97L938.847 606.58L943.866 604.429L949.602 602.995L955.336 597.978L957.726 597.02L961.075 593.674L962.031 590.808L962.506 590.569L963.943 590.808L964.896 589.374L965.377 588.654L967.286 586.742L968.006 586.984L969.676 587.938L971.591 586.984L971.83 586.028L974.937 583.638L977.088 582.679L980.912 582.443L984.975 575.509L988.321 573.597L988.56 571.688L989.038 569.773L988.796 567.383L989.277 565.474Z" fill="#EF0C27" stroke="#19191A"/>
<path d="M1036.59 698.834H1035.39L1031.81 698.595L1030.86 697.878L1029.9 696.444L1028.47 690.23L1025.36 685.928L1021.54 684.494L1019.62 678.043L1017.23 675.173L1016.04 671.829L1013.88 670.873L1009.59 669.198L1006.96 665.854L1004.09 663.94L1003.85 662.269L1002.41 659.16L1001.46 658.204L997.396 656.77L989.509 649.363L985.924 648.168L984.968 645.778L981.619 642.908L979.229 638.127L976.839 635.737L975.886 633.828L970.864 632.869L964.175 629.523L962.023 627.614L964.413 622.592L966.084 621.158L967.279 619.488L967.521 618.293L967.279 617.812L974.449 614.227H976.603L976.839 612.793L983.295 609.928L984.009 608.969H984.968L1017.23 605.147L1017.47 606.103L1016.99 607.057L1017.95 608.252L1020.34 607.057L1025.12 610.884L1025.83 614.708L1053.56 611.123L1086.3 633.828L1085.11 634.542L1082.48 636.218L1080.33 639.322L1077.22 643.149L1075.07 647.929L1073.88 651.273V654.619V657.489L1072.92 658.443L1072.2 659.879L1070.05 660.118L1068.86 661.55L1067.18 663.464L1065.51 666.093L1064.32 668.244L1060.25 671.11L1057.86 674.695L1055.71 676.609L1052.84 678.758L1050.93 680.67L1049.5 681.865L1047.11 683.06L1045.67 683.538L1044.96 684.494L1045.2 685.45L1044.72 685.928L1043.52 688.318L1041.61 690.23H1039.7L1039.22 690.708L1038.98 691.188L1039.46 691.903L1040.42 692.144L1040.89 692.62L1040.66 693.815L1039.46 694.534L1037.31 696.683L1036.59 698.359V698.834Z" fill="#EF0C27" stroke="#19191A"/>
<path d="M841.57 631.673L843.96 634.302L842.048 724.167L842.526 728.469L848.023 773.879L849.218 772.923L850.652 771.967L854.715 773.404L855.671 771.489L856.389 765.039L858.061 760.498L860.691 765.039L860.452 766.709L861.647 770.294L864.512 774.357L867.144 774.599L869.292 774.357L872.402 771.014L873.119 770.772L874.553 769.577V768.863L874.072 768.143L872.641 767.429V766.709L873.836 763.844L873.358 762.888L871.446 761.212H870.729L869.292 760.017L867.383 757.149L867.144 754.998L867.861 754.283L867.622 753.564V752.369L935.018 745.677L934.542 743.767L931.433 738.987L931.913 731.098L928.806 724.408L928.567 718.909L930.001 715.324V711.263L932.391 707.917L932.628 706.958L930.479 704.332L931.433 701.703L929.762 699.788L927.611 698.357L926.653 696.442L925.221 691.901L923.548 690.228L905.623 625.937L841.57 631.673Z" fill="#EF0C27" stroke="#19191A"/>
<path d="M841.576 631.675L790.19 635.26L789.951 636.933L785.171 641.235L783.498 645.778L783.976 650.795L783.257 653.424L778.718 656.295L775.611 660.594L774.416 662.028V666.094L772.265 668.72V671.83L770.831 675.89L768.202 679.953L769.397 684.494L771.548 687.123L771.787 690.231L772.743 691.189V692.384L771.307 693.34L770.831 695.969V697.64V700.269L773.938 706.485L774.416 712.219L776.087 715.326L777.523 716.999L777.762 719.869L774.416 721.779L773.697 722.735L772.026 729.19L767.246 736.599L763.183 749.506L762.705 759.066L810.506 756.915L811.701 758.346L810.267 763.126V769.821L815.522 774.84L816.717 780.576L820.066 780.815L825.082 776.511L836.796 772.926L839.664 773.881L843.727 772.45L844.444 773.645L847.073 774.36L848.029 773.881L842.532 728.471L842.054 724.169L843.966 634.304L841.576 631.675Z" fill="#EF0C27" stroke="#19191A"/>
<path d="M681.439 593.674L789.947 588.894L789.469 590.089L791.859 591.764L792.812 594.393L792.337 596.783L788.991 599.41L786.123 602.758L785.884 604.909L802.372 603.714L801.419 605.148L801.897 606.58L800.941 609.209L797.834 612.555L796.639 618.769L793.532 622.834L794.007 627.134L793.771 632.394L792.812 632.87L790.186 635.26L789.947 636.933L785.167 641.235L783.494 645.779L783.972 650.795L783.252 653.424L778.714 656.295L775.607 660.594L774.412 662.028V666.094L772.261 668.72V671.83L770.826 675.891L768.198 679.954L769.393 684.495L771.544 687.124L771.783 690.231L772.739 691.189V692.384L771.302 693.34L770.826 695.969V697.64L697.211 699.791V683.539L693.39 682.585L690.041 684.019L688.846 683.78L685.024 680.91L685.742 627.134L681.439 593.674Z" fill="#EF0C27" stroke="#19191A"/>
<path d="M697.209 699.793L770.824 697.642V700.271L773.931 706.487L774.409 712.221L776.08 715.328L777.516 717.001L777.755 719.871L774.409 721.781L773.69 722.737L772.019 729.192L767.239 736.601L763.176 749.508L762.698 759.068L810.499 756.917L811.694 758.348L810.26 763.128V769.823L815.515 774.842L816.71 780.578L809.782 779.142L803.565 776.274L801.895 776.037L800.222 776.993L795.681 781.054L795.442 783.207L797.354 785.597L799.744 786.312L805.002 785.834L807.87 783.922L809.782 782.968H812.889L814.32 782.727L814.562 783.922L813.845 785.117L811.93 786.792L812.411 788.702L814.32 789.658L815.757 790.138L816.952 788.943L819.1 785.117L824.361 782.968L826.271 782.012H827.466L828.661 783.683L827.946 785.834L828.661 787.029L828.424 788.702L826.034 790.377L822.21 795.394L818.147 798.262L817.905 801.132L819.342 803.283L824.6 806.388L833.682 809.973L834.877 811.648L833.921 813.797L832.009 814.277L825.075 817.382L824.361 811.648L820.295 809.734L812.411 806.627L811.455 803.998L810.021 803.042L807.87 804.237L806.675 809.734L807.392 810.453L807.631 811.648L803.565 814.514L801.895 814.038L799.744 810.929L798.549 810.692L795.92 811.648L794.725 810.453L793.53 810.692L789.944 814.514L785.881 814.753L784.445 813.797L780.145 812.843L773.69 804.954L770.105 804.237L766.52 802.564L765.088 800.174H764.13L763.893 799.698L763.415 799.218L763.893 797.784L762.22 797.308L761.264 797.784L758.396 797.308L757.679 796.828L757.201 794.918H755.528L750.509 799.457L752.899 802.088L751.943 803.042L744.056 803.283L730.433 800.893L722.546 797.784L704.62 800.413L703.425 799.218L702.947 797.308L703.664 796.352L704.379 794.438L706.293 792.528L708.683 785.834L706.769 782.968V780.817L707.25 779.383L707.011 777.469L707.728 773.647L709.64 772.213L710.835 769.342L711.791 763.848V760.502L710.835 755.722L708.923 752.373L707.964 751.417L708.445 749.747L707.488 748.552L706.055 745.681L704.379 744.247L703.903 743.291L704.86 739.947L702.708 735.643L699.123 732.297L697.928 730.387L697.209 699.793Z" fill="#202022" stroke="#4F4F51"/>
<path d="M681.442 593.674L789.949 588.894L789.471 590.089L791.861 591.764L792.815 594.393L792.339 596.783L788.993 599.41L786.125 602.758L785.886 604.909L802.375 603.714L803.57 599.173L803.094 597.498L804.289 592.24L806.201 587.938L807.635 585.789L810.74 584.353L811.935 585.07L813.371 584.114L815.761 576.468L814.805 573.598L813.61 572.644L812.893 572.164L812.415 571.688L811.935 570.969H810.264L810.025 572.164L809.069 572.644L804.289 564.279V563.084L806.201 561.169V559.974L804.05 557.348L802.855 552.087L795.924 546.112L792.578 544.917L785.886 540.618L781.823 536.794L780.389 533.209L781.106 531.294L785.408 526.277L784.93 521.973L786.125 518.149L785.169 516.237L779.433 513.369L777.521 514.327L775.37 516.478L774.175 515.522L770.109 504.528L768.2 502.614L761.269 497.117L754.338 488.993L753.86 486.842L752.184 481.823L751.709 476.087L752.904 472.738V471.543L745.973 464.612L653.479 467.483L655.151 470.112L657.542 472.502L658.259 476.562L661.605 480.628L663.039 481.582L662.322 484.689L662.8 485.647L672.838 493.293L669.728 497.117L669.014 500.943L670.687 502.853L673.313 504.048L674.75 509.308L677.14 510.979L679.53 511.457L680.483 512.174L681.203 578.378L681.442 593.674Z" fill="#EF0C27" stroke="#19191A"/>
<path d="M637.939 378.811L752.661 374.987L753.856 378.811L756.485 381.201V383.113L754.57 385.981L755.765 389.808L757.919 398.173L764.85 400.563L767.001 402.473L767.957 405.343L768.91 407.014L773.454 410.123L773.932 412.989L778.471 415.618L779.907 420.878L779.666 423.507L778.234 426.612L776.561 428.287V430.914L772.495 435.218L768.91 436.413L767.715 437.608L763.177 437.847L760.787 439.279L759.35 442.388L759.592 445.018L762.46 447.883L763.177 449.798L762.46 454.339L759.114 461.748L755.529 464.138L754.334 466.528L754.57 468.918L752.9 471.544L745.969 464.613L653.474 467.484L652.516 466.047L651.799 462.704L652.516 460.314L650.845 457.924L650.126 455.534L651.799 453.144L650.845 450.754L647.736 449.078L648.455 444.298L649.409 441.669L648.455 439.279L645.346 436.889L644.392 434.262L645.346 431.872L642.719 429.482L641.285 424.463L638.895 422.312L640.329 418.008V415.857L636.981 413.947V410.838V410.123L636.505 407.014L634.115 401.278L636.505 395.783L636.027 393.152L637.7 391.718L636.744 387.176L635.069 385.503L636.264 382.396L635.31 380.723L634.591 378.811L636.505 378.572L637.939 378.811Z" fill="#EF0C27" stroke="#19191A"/>
<path d="M637.941 378.811L637.702 323.126L630.054 315.717L629.813 313.088L633.639 309.022L635.071 305.918L634.834 303.286L634.593 298.748L635.071 294.682L631.486 283.927L631.249 281.537V276.042L630.291 272.935L629.813 257.637L628.142 248.796L625.511 245.926L623.601 236.127L623.362 227.525L624.079 222.506L624.796 220.355L622.643 213.185L622.406 210.795L663.751 210.556L663.993 203.625L664.471 199.562H667.578L671.88 201.235L672.358 207.927L673.553 212.465L673.311 216.531L677.855 219.877L679.528 219.396L682.635 219.877L684.067 221.55L687.652 221.072L691.478 221.786L692.432 223.22V224.415L698.407 224.176L700.321 221.786L709.162 221.311L714.9 222.981H716.332L715.378 224.657L717.29 226.33L718.246 225.852L719.202 226.805L720.158 230.871L722.307 232.066L724.697 229.195L725.892 228.481L728.282 229.195L729.718 232.066L734.499 233.261L735.933 235.171L738.084 236.846H741.191L744.298 236.127L752.182 230.632L753.377 231.347L755.531 233.976L767.481 233.737L769.393 234.217L770.827 235.171L773.934 237.322L776.563 236.127L781.821 235.89L778.714 238.756L771.783 242.821L767.959 243.777L765.091 244.972L761.984 248.077L755.767 250.706L753.141 252.857L743.103 263.851L728.762 276.996L727.087 279.147L725.655 280.581L726.133 297.072L724.46 298.987L722.548 299.943L716.332 304.962L716.095 307.591L715.378 308.308L713.705 312.846L717.051 314.522L719.202 318.346L717.29 321.931L717.527 325.038L717.051 330.057V338.183L718.246 339.856L720.636 341.527L721.112 342.963L726.85 343.917L727.806 344.636L728.045 346.068L729.477 347.026L736.172 349.892L738.323 354.672L744.298 359.213L751.229 363.993L752.182 365.668L751.946 369.493L752.663 374.987L637.941 378.811Z" fill="#EF0C27" stroke="#19191A"/>
<path d="M767.963 405.343L767.007 402.473L764.856 400.563L757.925 398.173L755.771 389.808L754.576 385.982L756.49 383.114V381.202L753.861 378.811L752.666 374.987L751.949 369.493L752.186 365.669L751.232 363.993L744.301 359.213L738.326 354.672L736.175 349.892L729.481 347.027L728.049 346.068L727.81 344.636L726.854 343.917L721.116 342.963L720.64 341.527L718.25 339.856L717.055 338.183V330.057L717.531 325.038L717.294 321.931L719.206 318.346L717.055 314.522L713.709 312.847L715.382 308.308L716.099 307.591L716.336 304.962L722.552 299.943L724.464 298.987L726.137 297.073L725.659 280.581L727.091 279.147L728.766 276.996L730.917 278.191L733.785 278.672L737.37 278.433L743.106 275.087L753.861 269.587L755.771 269.351L756.49 270.546V272.936L755.534 274.367V275.801L754.339 280.106L758.403 278.191H760.551L763.183 280.581L765.573 280.106L766.768 281.776L769.875 282.257L771.306 283.452L772.265 287.037L773.696 287.751L793.775 291.817H796.165L800.467 295.402H803.335L804.291 296.358L805.247 295.402H806.681L811.7 296.358L814.807 297.312L816.002 298.507L815.522 299.226L815.285 300.182L818.631 301.138L822.455 303.048L822.933 305.918L821.738 313.566L822.455 313.803L826.277 313.088L826.757 313.566L826.277 315.237L825.082 316.432L826.04 320.017L829.386 321.931L828.908 322.407L824.367 326.948L821.497 332.686L820.543 336.747L820.065 338.661L821.021 339.378L824.367 337.703L827.952 331.013L831.776 327.906L833.688 326.948L834.166 325.277L835.837 323.843L836.795 321.931L836.556 319.778L836.795 318.107L837.751 317.388L838.707 315.478L839.663 314.522L840.859 314.283L841.575 315.478L841.098 319.302L837.99 326.948L836.556 328.862L835.837 331.728V333.403L832.971 339.617V345.112L832.732 348.939L829.862 351.807L829.147 353.719L830.103 358.018L830.342 365.427L829.147 367.103L826.757 374.748L828.191 385.982L831.298 393.632L830.581 394.827L831.057 396.498L830.82 397.693L831.057 401.039L767.963 405.343Z" fill="#EF0C27" stroke="#19191A"/>
<path d="M1123.35 439.757L1121.92 445.254V446.212L1122.87 445.732L1124.31 448.363L1126.22 450.753L1127.89 452.663L1133.39 455.533L1135.06 456.009L1138.89 456.728L1140.32 456.967L1140.56 460.552L1140.32 462.942L1141.75 464.137L1143.19 462.462L1144.86 458.877L1145.1 455.533L1147.49 451.229L1148.92 447.644L1149.88 435.218L1153.7 439.279L1155.14 435.933V433.543L1154.42 423.507L1153.47 415.379L1151.79 412.988L1148.45 413.947L1147.25 414.903L1146.06 414.423L1145.58 413.947L1144.62 414.423L1144.14 414.183V412.752L1145.82 408.928L1146.77 408.208L1148.21 407.972L1147.97 404.623L1148.45 402.711L1149.4 401.516L1150.84 400.082L1149.4 396.736L1129.57 389.808L1128.37 390.283L1126.7 392.912V394.346L1125.98 398.887L1123.11 401.516L1122.63 402.472V403.428L1124.55 405.343L1124.79 408.447L1123.35 409.403L1123.59 414.903L1124.07 415.379L1126.94 415.857L1128.13 419.442L1130.52 420.159L1131.24 421.117L1133.15 421.832L1134.35 423.268L1137.69 425.658L1137.45 426.373L1133.87 428.524L1130.04 432.348L1129.33 435.694L1123.35 439.757Z" fill="#202022" stroke="#4F4F51"/>
<path d="M1132.2 274.366L1133.87 277.236L1133.15 278.67L1134.35 280.105L1134.59 281.061L1137.93 289.901L1139.13 296.357L1137.69 299.461L1137.93 302.81L1141.76 311.411L1141.28 315.477L1142 316.672L1142.71 316.431L1142.24 315.477H1143.67L1146.06 319.301L1147.49 326.71V331.012L1149.17 336.031L1151.56 341.05L1168.05 337.465L1167.57 335.792L1165.66 333.88L1165.9 330.771L1166.61 329.817L1165.66 326.947L1164.46 314.521V310.697L1165.9 303.285L1167.33 298.505L1167.57 295.162L1166.14 292.53V289.665L1167.09 287.992L1171.87 283.926L1174.5 277.236L1171.87 273.41L1171.39 271.5L1172.35 270.544V269.11L1171.16 264.569L1132.2 274.366Z" fill="#EF0C27" stroke="#19191A"/>
<path d="M1202.95 324.319L1201.51 323.599L1199.84 324.08L1197.93 327.184L1195.78 327.904L1196.25 329.816L1195.78 330.53L1195.06 329.816L1194.34 330.53L1194.1 331.489L1168.05 337.464L1167.57 335.791L1165.66 333.879L1165.9 330.769L1166.62 329.816L1165.66 326.945L1164.46 314.52V310.696L1165.9 303.284L1167.34 298.504L1167.57 295.16L1166.14 292.529V289.663L1167.1 287.99L1171.88 283.925L1174.51 277.235L1171.88 273.409L1171.4 271.499L1172.35 270.543V269.109L1171.16 264.568L1172.12 258.83L1170.68 256.92L1171.16 256.203H1172.83L1173.55 254.289L1174.98 254.769L1176.66 254.53L1177.85 253.335L1195.06 304.96L1195.3 305.916L1195.06 308.064L1195.3 309.02L1199.6 312.369L1200.56 312.605L1201.03 314.281V315.476L1203.42 319.539L1202.95 320.256V322.404V324.319Z" fill="#EF0C27" stroke="#19191A"/>
<path d="M1142 478.477L1141.52 475.607L1139.85 471.307L1136.98 468.437L1132.68 465.569L1131.24 463.657L1130.29 461.747L1126.94 456.009L1125.51 453.618L1122.88 450.511L1121.92 448.363L1121.68 446.448L1121.92 446.212V445.253L1123.36 439.756L1121.44 439.278L1118.82 439.517L1116.66 441.668L1116.43 443.583L1115.71 444.058L1115.47 444.297L1126.7 481.823L1142 478.477Z" fill="#202022" stroke="#4F4F51"/>
<g opacity="0.5" filter="url(#filter0_f_48_2272)">
<ellipse cx="172.603" cy="182.452" rx="21.5" ry="138.251" transform="rotate(-27.083 172.603 182.452)" fill="url(#paint0_linear_48_2272)" fill-opacity="0.5"/>
</g>
<g opacity="0.5" filter="url(#filter1_f_48_2272)">
<ellipse cx="359.891" cy="182.451" rx="21.5" ry="138.251" transform="rotate(-21.7511 359.891 182.451)" fill="url(#paint1_linear_48_2272)" fill-opacity="0.5"/>
</g>
<g opacity="0.5" filter="url(#filter2_f_48_2272)">
<ellipse cx="526.263" cy="182.452" rx="21.5" ry="138.251" transform="rotate(-17.0862 526.263 182.452)" fill="url(#paint2_linear_48_2272)" fill-opacity="0.5"/>
</g>
<g opacity="0.5" filter="url(#filter3_f_48_2272)">
<ellipse cx="642.934" cy="182.451" rx="21.5" ry="138.251" fill="url(#paint3_linear_48_2272)" fill-opacity="0.5"/>
</g>
<g opacity="0.5" filter="url(#filter4_f_48_2272)">
<ellipse cx="766.728" cy="182.452" rx="21.5" ry="138.251" transform="rotate(20.3774 766.728 182.452)" fill="url(#paint4_linear_48_2272)" fill-opacity="0.5"/>
</g>
<g opacity="0.5" filter="url(#filter5_f_48_2272)">
<ellipse cx="937.316" cy="182.452" rx="21.5" ry="138.251" transform="rotate(20.3774 937.316 182.452)" fill="url(#paint5_linear_48_2272)" fill-opacity="0.5"/>
</g>
<g opacity="0.5" filter="url(#filter6_f_48_2272)">
<ellipse cx="1107.9" cy="182.452" rx="21.5" ry="138.251" transform="rotate(20.3774 1107.9 182.452)" fill="url(#paint6_linear_48_2272)" fill-opacity="0.5"/>
</g>
<defs>
<filter id="filter0_f_48_2272" x="62.5969" y="14.7648" width="220.013" height="335.374" filterUnits="userSpaceOnUse" color-interpolation-filters="sRGB">
<feFlood flood-opacity="0" result="BackgroundImageFix"/>
<feBlend mode="normal" in="SourceGraphic" in2="BackgroundImageFix" result="shape"/>
<feGaussianBlur stdDeviation="22.1" result="effect1_foregroundBlur_48_2272"/>
</filter>
<filter id="filter1_f_48_2272" x="260.691" y="9.59199" width="198.402" height="345.718" filterUnits="userSpaceOnUse" color-interpolation-filters="sRGB">
<feFlood flood-opacity="0" result="BackgroundImageFix"/>
<feBlend mode="normal" in="SourceGraphic" in2="BackgroundImageFix" result="shape"/>
<feGaussianBlur stdDeviation="22.1" result="effect1_foregroundBlur_48_2272"/>
</filter>
<filter id="filter2_f_48_2272" x="436.53" y="5.94844" width="179.464" height="353.006" filterUnits="userSpaceOnUse" color-interpolation-filters="sRGB">
<feFlood flood-opacity="0" result="BackgroundImageFix"/>
<feBlend mode="normal" in="SourceGraphic" in2="BackgroundImageFix" result="shape"/>
<feGaussianBlur stdDeviation="22.1" result="effect1_foregroundBlur_48_2272"/>
</filter>
<filter id="filter3_f_48_2272" x="577.234" y="0.00019455" width="131.4" height="364.902" filterUnits="userSpaceOnUse" color-interpolation-filters="sRGB">
<feFlood flood-opacity="0" result="BackgroundImageFix"/>
<feBlend mode="normal" in="SourceGraphic" in2="BackgroundImageFix" result="shape"/>
<feGaussianBlur stdDeviation="22.1" result="effect1_foregroundBlur_48_2272"/>
</filter>
<filter id="filter4_f_48_2272" x="670.325" y="8.43281" width="192.804" height="348.038" filterUnits="userSpaceOnUse" color-interpolation-filters="sRGB">
<feFlood flood-opacity="0" result="BackgroundImageFix"/>
<feBlend mode="normal" in="SourceGraphic" in2="BackgroundImageFix" result="shape"/>
<feGaussianBlur stdDeviation="22.1" result="effect1_foregroundBlur_48_2272"/>
</filter>
<filter id="filter5_f_48_2272" x="840.913" y="8.43281" width="192.804" height="348.038" filterUnits="userSpaceOnUse" color-interpolation-filters="sRGB">
<feFlood flood-opacity="0" result="BackgroundImageFix"/>
<feBlend mode="normal" in="SourceGraphic" in2="BackgroundImageFix" result="shape"/>
<feGaussianBlur stdDeviation="22.1" result="effect1_foregroundBlur_48_2272"/>
</filter>
<filter id="filter6_f_48_2272" x="1011.5" y="8.43281" width="192.804" height="348.038" filterUnits="userSpaceOnUse" color-interpolation-filters="sRGB">
<feFlood flood-opacity="0" result="BackgroundImageFix"/>
<feBlend mode="normal" in="SourceGraphic" in2="BackgroundImageFix" result="shape"/>
<feGaussianBlur stdDeviation="22.1" result="effect1_foregroundBlur_48_2272"/>
</filter>
<linearGradient id="paint0_linear_48_2272" x1="172.868" y1="44.4971" x2="290.998" y2="87.3474" gradientUnits="userSpaceOnUse">
<stop stop-color="white"/>
<stop offset="1" stop-color="white" stop-opacity="0"/>
</linearGradient>
<linearGradient id="paint1_linear_48_2272" x1="360.156" y1="44.497" x2="478.286" y2="87.3473" gradientUnits="userSpaceOnUse">
<stop stop-color="white"/>
<stop offset="1" stop-color="white" stop-opacity="0"/>
</linearGradient>
<linearGradient id="paint2_linear_48_2272" x1="526.528" y1="44.4971" x2="644.657" y2="87.3474" gradientUnits="userSpaceOnUse">
<stop stop-color="white"/>
<stop offset="1" stop-color="white" stop-opacity="0"/>
</linearGradient>
<linearGradient id="paint3_linear_48_2272" x1="643.199" y1="44.4969" x2="761.328" y2="87.3473" gradientUnits="userSpaceOnUse">
<stop stop-color="white"/>
<stop offset="1" stop-color="white" stop-opacity="0"/>
</linearGradient>
<linearGradient id="paint4_linear_48_2272" x1="766.993" y1="44.4975" x2="885.123" y2="87.3478" gradientUnits="userSpaceOnUse">
<stop stop-color="white"/>
<stop offset="1" stop-color="white" stop-opacity="0"/>
</linearGradient>
<linearGradient id="paint5_linear_48_2272" x1="937.581" y1="44.4975" x2="1055.71" y2="87.3478" gradientUnits="userSpaceOnUse">
<stop stop-color="white"/>
<stop offset="1" stop-color="white" stop-opacity="0"/>
</linearGradient>
<linearGradient id="paint6_linear_48_2272" x1="1108.17" y1="44.4975" x2="1226.3" y2="87.3478" gradientUnits="userSpaceOnUse">
<stop stop-color="white"/>
<stop offset="1" stop-color="white" stop-opacity="0"/>
</linearGradient>
</defs>
</svg>
